<?xml version="1.0" encoding="UTF-8" standalone="no"?>
<svg
   xmlns:dc="http://purl.org/dc/elements/1.1/"
   xmlns:cc="http://creativecommons.org/ns#"
   xmlns:rdf="http://www.w3.org/1999/02/22-rdf-syntax-ns#"
   xmlns:svg="http://www.w3.org/2000/svg"
   xmlns="http://www.w3.org/2000/svg"
   xmlns:sodipodi="http://sodipodi.sourceforge.net/DTD/sodipodi-0.dtd"
   xmlns:inkscape="http://www.inkscape.org/namespaces/inkscape"
   version="1.1"
   x="0px"
   y="0px"
   viewBox="0 0 384 448"
   enable-background="new 0 0 512 512"
   xml:space="preserve"
   id="svg12"
   sodipodi:docname="noun_344512_cc.svg"
   width="384"
   height="448"
   inkscape:version="0.92.2 5c3e80d, 2017-08-06"><metadata
     id="metadata18"><rdf:RDF><cc:Work
         rdf:about=""><dc:format>image/svg+xml</dc:format><dc:type
           rdf:resource="http://purl.org/dc/dcmitype/StillImage" /><dc:title></dc:title></cc:Work></rdf:RDF></metadata><defs
     id="defs16" /><sodipodi:namedview
     pagecolor="#ffffff"
     bordercolor="#666666"
     borderopacity="1"
     objecttolerance="10"
     gridtolerance="10"
     guidetolerance="10"
     inkscape:pageopacity="0"
     inkscape:pageshadow="2"
     inkscape:window-width="1646"
     inkscape:window-height="743"
     id="namedview14"
     showgrid="false"
     fit-margin-top="0"
     fit-margin-left="0"
     fit-margin-right="0"
     fit-margin-bottom="0"
     inkscape:zoom="0.52149125"
     inkscape:cx="-57.503416"
     inkscape:cy="98.460347"
     inkscape:window-x="0"
     inkscape:window-y="27"
     inkscape:window-maximized="0"
     inkscape:current-layer="svg12" /><g
     id="g6"
     transform="translate(-64,-32)"><path
       d="m 128,64 c -35.29,0 -64,28.71 -64,64 0,23.637 12.89,44.307 32,55.391 V 360.61 C 76.89,371.693 64,392.363 64,416 c 0,35.29 28.71,64 64,64 35.29,0 64,-28.71 64,-64 0,-23.637 -12.89,-44.307 -32,-55.391 V 183.391 C 179.11,172.307 192,151.637 192,128 192,92.71 163.29,64 128,64 Z m 0,384 c -17.673,0 -32,-14.327 -32,-32 0,-17.673 14.327,-32 32,-32 17.673,0 32,14.327 32,32 0,17.673 -14.327,32 -32,32 z m 0,-288 c -17.673,0 -32,-14.327 -32,-32 0,-17.673 14.327,-32 32,-32 17.673,0 32,14.327 32,32 0,17.673 -14.327,32 -32,32 z"
       id="path2"
       inkscape:connector-curvature="0" /><path
       d="M 415,360.034 V 204.989 C 415,171.002 404.51,143.987 383.82,124.695 361.709,104.077 329.506,94.307 288,95.589 V 32 l -96,96 96,96 v -64 c 26.5,0 42.67,2.642 52.175,11.504 7.183,6.698 10.825,17.964 10.825,33.485 v 156.196 c -18.562,11.217 -31,31.589 -31,54.814 0,35.29 28.71,64 64,64 35.29,0 64,-28.71 64,-64 0,-24.048 -13.338,-45.03 -33,-55.965 z M 384,448 c -17.673,0 -32,-14.327 -32,-32 0,-17.673 14.327,-32 32,-32 17.673,0 32,14.327 32,32 0,17.673 -14.327,32 -32,32 z"
       id="path4"
       inkscape:connector-curvature="0" /></g></svg>