<?xml version="1.0" encoding="UTF-8" standalone="no"?>
<!-- Created with Inkscape (http://www.inkscape.org/) -->

<svg
   xmlns:dc="http://purl.org/dc/elements/1.1/"
   xmlns:cc="http://creativecommons.org/ns#"
   xmlns:rdf="http://www.w3.org/1999/02/22-rdf-syntax-ns#"
   xmlns:svg="http://www.w3.org/2000/svg"
   xmlns="http://www.w3.org/2000/svg"
   xmlns:sodipodi="http://sodipodi.sourceforge.net/DTD/sodipodi-0.dtd"
   xmlns:inkscape="http://www.inkscape.org/namespaces/inkscape"
   width="16px"
   height="16px"
   viewBox="0 0 16 16"
   version="1.1"
   id="SVGRoot"
   sodipodi:docname="tidyduck 2.1.svg"
   inkscape:version="0.92.2 (5c3e80d, 2017-08-06)">
  <sodipodi:namedview
     id="base"
     pagecolor="#ffffff"
     bordercolor="#666666"
     borderopacity="1.0"
     inkscape:pageopacity="0.0"
     inkscape:pageshadow="2"
     inkscape:zoom="32"
     inkscape:cx="8"
     inkscape:cy="6.7994229"
     inkscape:document-units="px"
     inkscape:current-layer="layer1"
     showgrid="false"
     inkscape:window-width="1680"
     inkscape:window-height="987"
     inkscape:window-x="-8"
     inkscape:window-y="-8"
     inkscape:window-maximized="1"
     inkscape:grid-bbox="true" />
  <defs
     id="defs1465" />
  <metadata
     id="metadata1468">
    <rdf:RDF>
      <cc:Work
         rdf:about="">
        <dc:format>image/svg+xml</dc:format>
        <dc:type
           rdf:resource="http://purl.org/dc/dcmitype/StillImage" />
      </cc:Work>
    </rdf:RDF>
  </metadata>
  <g
     id="layer1"
     inkscape:groupmode="layer"
     inkscape:label="Layer 1">
    <path
       style="fill:#ffff00;stroke:#003700;stroke-width:0.07455336;stroke-linecap:butt;stroke-linejoin:miter;stroke-miterlimit:4;stroke-dasharray:none;stroke-opacity:1"
       d="m 10.274798,5.5879788 c 0,0 2.559361,0.1245869 3.529972,0.8539438 C 14.77538,7.1712799 13.264751,12.806061 6.3763595,12.451871 0.94467509,12.172582 1.4304065,9.3678007 1.5594335,8.5080199 1.6884621,7.6482392 3.5184355,5.2296836 3.4420053,4.4747446 6.1241079,1.4169297 2.4440437,4.6693546 2.835729,3.169975 3.4677381,1.7770041 4.378915,1.0193231 5.5546794,0.88939622 8.1398566,-0.07000156 6.948104,0.61801296 6.6950143,1.0953105 7.1021569,1.4303113 8.7564229,1.2137298 7.1519025,3.7177674 5.8381601,5.7680131 5.3567089,6.3791932 5.8412967,6.1578644 6.3258817,5.9365356 7.9457175,5.333879 10.274798,5.5879788 Z"
       id="path3709"
       inkscape:connector-curvature="0"
       sodipodi:nodetypes="csssccccssc"
       inkscape:export-xdpi="96"
       inkscape:export-ydpi="96" />
    <path
       style="fill:#786721;stroke:#000000;stroke-width:0.06659866;stroke-linecap:butt;stroke-linejoin:miter;stroke-miterlimit:4;stroke-dasharray:none;stroke-opacity:1"
       d="m 9.8355543,12.091197 0.2915747,2.249434 c 0,0 2.6007,0.482698 1.647745,0.51159 -1.539873,0.04669 -0.765975,0.375338 -1.263603,0.854734 -0.6770561,-0.457308 -0.5422559,-0.954404 -2.17261,-0.707453 -0.7197246,0.109017 0.9950969,-0.598935 1.3558821,-0.638439 0.1590714,-0.213871 -0.350915,-2.148719 -0.350915,-2.148719 z"
       id="path3713"
       inkscape:connector-curvature="0"
       sodipodi:nodetypes="ccscsccc"
       inkscape:export-xdpi="96"
       inkscape:export-ydpi="96" />
    <path
       style="fill:#786721;stroke:#000000;stroke-width:0.06085013;stroke-linecap:butt;stroke-linejoin:miter;stroke-miterlimit:4;stroke-dasharray:none;stroke-opacity:1"
       d="M 3.9518134,3.1444878 C 4.5024519,2.9048472 4.6943703,2.9571756 4.6312233,3.167724 4.5680765,3.3782732 4.2498625,3.7470428 3.7802405,4.1402857 3.3106201,4.5335291 2.6895885,4.9512457 2.0208035,5.2596884 1.3520182,5.5681311 0.73033847,5.6995443 0.06970325,5.6556915 0.23252979,4.9574628 0.89707851,4.7905758 1.7438683,4.0674302 2.9053854,3.2687855 2.932644,2.6339014 2.9053854,3.2687855 2.8823378,3.8056055 3.8954719,3.1674019 3.9518134,3.1444878 Z"
       id="path4534"
       inkscape:connector-curvature="0"
       sodipodi:nodetypes="csssccsc"
       inkscape:export-xdpi="96"
       inkscape:export-ydpi="96" />
    <path
       style="fill:#ffee60;fill-opacity:1;stroke:#1f3b00;stroke-width:0.10018156;stroke-linecap:butt;stroke-linejoin:miter;stroke-miterlimit:4;stroke-dasharray:none;stroke-opacity:1"
       d="M 5.6076289,8.7767383 C 5.3591984,9.1727486 6.2853756,8.7212147 7.0914409,9.4599644 7.0313695,9.7084433 6.8687508,10.017239 6.2553272,10.79046 6.4602825,10.944416 8.3479633,10.31078 8.5676948,10.063495 9.4307729,9.0921948 10.118217,9.3396021 9.3733464,8.6124442 12.338331,7.9843798 9.4795937,8.0007441 9.7964391,7.7815545 10.113286,7.562365 11.548487,7.1791404 11.143413,7.0532718"
       id="path4549"
       inkscape:connector-curvature="0"
       sodipodi:nodetypes="cccscsc"
       inkscape:export-xdpi="96"
       inkscape:export-ydpi="96" />
    <path
       sodipodi:nodetypes="cccssccc"
       inkscape:connector-curvature="0"
       id="path4560"
       d="M 4.5645661,12.196339 3.968344,13.748234 c 0,0 -1.3165745,0.624332 -1.3350313,0.852796 -0.018453,0.228463 0.5442395,-0.364895 1.1812443,0.775642 0.4504,0.806429 -0.2970463,-1.166127 1.5767686,-0.591469 0.5908709,0.181208 -1.0135493,-0.986892 -1.0997616,-0.860513 -0.086214,0.126378 0.813243,-1.55234 0.813243,-1.55234 z"
       style="fill:#806600;stroke:#000000;stroke-width:0.01389561px;stroke-linecap:butt;stroke-linejoin:miter;stroke-opacity:1"
       inkscape:export-xdpi="96"
       inkscape:export-ydpi="96" />
    <path
       style="fill:#502d16;stroke:#000000;stroke-width:0.01567327px;stroke-linecap:butt;stroke-linejoin:miter;stroke-opacity:1"
       d="m 3.4271379,3.743149 c 0.084597,0.3418575 -1.0841291,0.9814318 0,0 z"
       id="path4658"
       inkscape:connector-curvature="0"
       sodipodi:nodetypes="cc"
       inkscape:export-xdpi="96"
       inkscape:export-ydpi="96" />
    <path
       style="fill:#2d5016;stroke:#000000;stroke-width:0.0298871;stroke-miterlimit:4;stroke-dasharray:none;stroke-opacity:1"
       d="M 5.4043564,3.3944175 C 5.2928103,3.3085859 5.2554349,3.1026519 5.3105826,2.8777211 l 0.043236,-0.176342 0.1059437,0.1328102 c 0.1888045,0.2366805 0.306228,0.2017375 0.440176,-0.1309884 l 0.084032,-0.2087303 0.1998416,0.060583 C 6.4662797,2.6406846 6.4912249,2.6850128 6.4201281,2.9749947 6.3789261,3.1430444 6.3445961,3.2223704 6.281153,3.2961229 6.0955648,3.5118721 5.625487,3.564571 5.4043564,3.3944175 Z"
       id="path4700"
       inkscape:connector-curvature="0"
       inkscape:export-xdpi="96"
       inkscape:export-ydpi="96" />
    <path
       style="fill:#225500;stroke:#000000;stroke-width:0.05186906;stroke-miterlimit:4;stroke-dasharray:none;stroke-opacity:1"
       d="M 13.458497,8.5970443 C 13.620952,8.2927903 13.696857,8.1023307 13.810681,7.7133715 14.043282,6.9185119 14.00786,6.7298543 13.571498,6.4395101 13.281107,6.2462898 12.939675,6.1064913 12.280969,5.9111036 12.131431,5.8667481 11.994601,5.8165075 11.976904,5.7994577 c -0.05702,-0.054936 1.215702,0.3187649 2.555515,0.4521801 1.94466,-0.5594123 0.353259,0.1278727 0.645978,0.2395336 1.84068,0.7021483 0.09228,0.099769 -0.330574,1.1232592 -0.485385,0.780849 -0.675598,1.2338369 -0.952696,1.6226019 -0.320046,0.4490195 -0.705549,0.7245672 -1.995913,1.7232245 1.242116,-1.7163022 0.961635,-1.287236 1.559283,-2.3632127 z"
       id="path4710"
       inkscape:connector-curvature="0"
       sodipodi:nodetypes="csscccscscc" />
    <path
       style="fill:#d4aa00;fill-opacity:1;stroke:#000000;stroke-width:0.01494356px;stroke-linecap:butt;stroke-linejoin:miter;stroke-opacity:1"
       d="M 12.41544,6.1510549 C 11.570056,5.8555192 10.921579,5.4992744 12.225419,5.8524496 c 1.02258,0.2769899 2.343713,0.673188 1.873067,1.9273612 C 12.570645,11.851205 9.3924502,12.317252 7.7365481,12.425836 12.029558,11.459359 15.773949,7.3251479 12.41544,6.1510549 Z"
       id="path4714"
       inkscape:connector-curvature="0"
       sodipodi:nodetypes="ssscs" />
    <path
       style="fill:#502d16;stroke:#2d0400;stroke-width:0.11207662;stroke-miterlimit:4;stroke-dasharray:none;stroke-opacity:1"
       d="M 4.0052142,12.601499 C 4.2036811,12.288609 7.6356148,7.5457253 8.753068,6.040035 10.71722,3.3934722 11.983599,1.8736009 12.134952,1.9812034 c 0.03682,0.026197 0.02293,0.079647 -0.07375,0.2835342 -0.26703,0.5632236 -0.35973,0.7017374 -2.2272098,3.3279356 -1.0781467,1.5161725 -2.3826736,3.3231186 -3.342958,4.6304338 -0.8661565,1.179182 -1.6640792,2.267686 -1.7731611,2.41891 -0.1090834,0.151218 -0.2242848,0.295534 -0.2560114,0.320698 -0.057482,0.0456 -0.4638568,-0.0079 -0.5639143,-0.07426 -0.04942,-0.03278 -0.042891,-0.05025 0.1072618,-0.286962 z"
       id="path4696"
       inkscape:connector-curvature="0"
       inkscape:export-xdpi="96"
       inkscape:export-ydpi="96" />
    <path
       style="fill:#786721;stroke:#000000;stroke-width:0.06449389;stroke-linecap:butt;stroke-linejoin:miter;stroke-miterlimit:4;stroke-dasharray:none;stroke-opacity:1"
       d="m 5.4476867,12.380613 -0.074113,2.126996 c 0,0 -2.5422295,0.716761 -1.5909291,0.645951 1.5371951,-0.11442 0.7026487,0.06054 1.2440176,0.45643 0.6299737,-0.495782 -0.8167965,-0.447115 0.8296971,-0.384114 0.7268498,0.0278 0.2934899,-0.590455 -0.069412,-0.590278 -0.1788787,-0.183071 0.1620166,-2.192501 0.1620166,-2.192501 z"
       id="path3713-6"
       inkscape:connector-curvature="0"
       sodipodi:nodetypes="ccscsccc"
       inkscape:export-xdpi="96"
       inkscape:export-ydpi="96" />
    <path
       style="fill:#d4aa00;fill-opacity:1;stroke:#2e0000;stroke-width:0.06404579;stroke-linecap:butt;stroke-linejoin:miter;stroke-miterlimit:4;stroke-dasharray:none;stroke-opacity:1"
       d="M 5.9481103,11.304845 5.104807,12.37235 5.8497921,13.843213 5.5421225,14.334914 4.065628,13.062236 1.9214335,12.266012 l 0.40974,-0.328255 2.1002129,-0.185633 0.6515103,-1.109953 0.3972772,0.426454 z"
       id="path4674"
       inkscape:connector-curvature="0"
       sodipodi:nodetypes="ccccccccccc"
       inkscape:export-xdpi="96"
       inkscape:export-ydpi="96"
       inkscape:transform-center-x="-14.807455"
       inkscape:transform-center-y="1.7384166" />
    <path
       style="fill:#2d5016;fill-opacity:1;fill-rule:nonzero;stroke:#210000;stroke-width:0.08966131;stroke-linecap:butt;stroke-linejoin:miter;stroke-miterlimit:4;stroke-dasharray:none;stroke-opacity:1"
       d="m 1.9214335,12.266012 c 0,0 -1.14358052,0.914851 -1.32264202,1.577202 -0.11840024,0.437965 0.26829802,1.686453 0.26829802,1.686453 0,0 3.2412024,0.751107 4.7527319,0.268298 0.2337844,-0.07467 1.3031671,-0.76657 1.3031671,-0.76657 L 5.5421225,14.334914 4.0052142,12.601499 Z"
       id="path830"
       inkscape:connector-curvature="0"
       sodipodi:nodetypes="cscscccc" />
    <path
       style="fill:#ffff00;fill-opacity:1;stroke:#000000;stroke-width:0.01664811px;stroke-linecap:butt;stroke-linejoin:miter;stroke-opacity:1"
       d="m 2.5733697,12.658733 c 0,0 -0.7148741,0.540176 -0.7882887,0.935991 -0.056303,0.303553 0.2955011,0.843124 0.2955011,0.843124 0,0 -0.247501,-0.544343 -0.1813235,-0.835583 0.080345,-0.35358 0.6741111,-0.943532 0.6741111,-0.943532 z"
       id="path828"
       inkscape:connector-curvature="0"
       sodipodi:nodetypes="cscsc" />
    <path
       style="fill:#ffff00;fill-opacity:1;stroke:#000000;stroke-width:0.01664811px;stroke-linecap:butt;stroke-linejoin:miter;stroke-opacity:1"
       d="m 2.3711295,12.640001 c 0,0 -0.7148753,0.540179 -0.7882899,0.935992 -0.056303,0.303554 0.2955026,0.843125 0.2955026,0.843125 0,0 -0.2475023,-0.544343 -0.1813237,-0.835583 0.080344,-0.35358 0.674111,-0.943534 0.674111,-0.943534 z"
       id="path828-2"
       inkscape:connector-curvature="0"
       sodipodi:nodetypes="cscsc" />
    <path
       style="fill:#ffff00;fill-opacity:1;stroke:#000000;stroke-width:0.01664811px;stroke-linecap:butt;stroke-linejoin:miter;stroke-opacity:1"
       d="m 2.7290635,12.687996 c 0,0 -0.7148755,0.540179 -0.7882902,0.935993 -0.056302,0.303553 0.2955028,0.843125 0.2955028,0.843125 0,0 -0.2475025,-0.544343 -0.1813237,-0.835585 0.080344,-0.353579 0.6741111,-0.943533 0.6741111,-0.943533 z"
       id="path828-2-9"
       inkscape:connector-curvature="0"
       sodipodi:nodetypes="cscsc" />
    <path
       style="fill:#ffff00;fill-opacity:1;stroke:#000000;stroke-width:0.01664811px;stroke-linecap:butt;stroke-linejoin:miter;stroke-opacity:1"
       d="m 2.0292227,12.613338 c 0,0 -0.7148756,0.540176 -0.7882902,0.935993 -0.056303,0.303552 0.2955027,0.843122 0.2955027,0.843122 0,0 -0.2475024,-0.544341 -0.1813237,-0.83558 0.080344,-0.353583 0.6741112,-0.943535 0.6741112,-0.943535 z"
       id="path828-2-4"
       inkscape:connector-curvature="0"
       sodipodi:nodetypes="cscsc" />
    <path
       style="fill:#ffff00;fill-opacity:1;stroke:#000000;stroke-width:0.01664811px;stroke-linecap:butt;stroke-linejoin:miter;stroke-opacity:1"
       d="m 3.0764816,12.728493 c 0,0 -0.714874,0.540178 -0.7882886,0.935992 -0.056304,0.303552 0.2955011,0.843124 0.2955011,0.843124 0,0 -0.247501,-0.544343 -0.1813235,-0.835583 0.080344,-0.353581 0.674111,-0.943533 0.674111,-0.943533 z"
       id="path828-2-42"
       inkscape:connector-curvature="0"
       sodipodi:nodetypes="cscsc" />
  </g>
</svg>
